<svg width="159" height="48" viewBox="0 0 159 48" fill="white" xmlns="http://www.w3.org/2000/svg"><path d="M25.896 12.3753H20.4819C20.0694 12.3753 19.7084 12.5816 19.5537 12.9941L13.4177 29.7005L7.23019 12.9941C7.0755 12.5816 6.71456 12.3753 6.30205 12.3753H0.991064C0.423871 12.3753 0.166056 12.6847 0.372308 13.2519L10.1177 37.6927L6.45674 46.5615C6.19893 47.1287 6.5083 47.4381 7.0755 47.4381H12.2318C12.6443 47.4381 13.0052 47.2319 13.1599 46.8194L26.5147 13.2519C26.721 12.6847 26.4632 12.3753 25.896 12.3753Z"></path><path d="M158.616 36.7128L148.2 22.8424L157.121 13.3032C157.585 12.8392 157.379 12.3751 156.708 12.3751H150.778C150.418 12.3751 150.108 12.4782 149.85 12.7876L140.569 22.7908V0.773444C140.569 0.309377 140.26 0 139.796 0H134.536C134.072 0 133.763 0.309377 133.763 0.773444V36.8675C133.763 37.3316 134.072 37.641 134.536 37.641H139.796C140.26 37.641 140.569 37.3316 140.569 36.8675V30.9894L144.075 27.2768L151.552 37.1769C151.81 37.5379 152.068 37.641 152.48 37.641H158.152C158.771 37.641 158.977 37.2285 158.616 36.7128Z"></path><path d="M128.352 12.3756H123.608C123.144 12.3756 122.886 12.685 122.834 13.149L122.68 15.5209C120.772 13.3553 118.194 11.8084 114.997 11.8084C107.933 11.8084 102.776 17.6866 102.776 25.0601C102.776 32.4336 107.933 38.3118 114.997 38.3118C118.297 38.3118 120.823 36.8165 122.628 34.7024L122.834 36.868C122.886 37.3321 123.144 37.6415 123.608 37.6415H128.352C128.816 37.6415 129.125 37.3321 129.125 36.868V13.149C129.125 12.685 128.816 12.3756 128.352 12.3756ZM115.822 32.1242C112.058 32.1242 109.325 29.082 109.325 25.0085C109.325 20.9866 112.058 17.996 115.822 17.996C119.534 17.996 122.267 21.1929 122.267 25.0085C122.267 28.8242 119.534 32.1242 115.822 32.1242Z"></path><path d="M89.4366 11.8084C85.3116 11.8084 82.3209 13.7678 80.5162 16.5006C78.9178 13.4584 76.0818 11.8084 72.7302 11.8084C69.0692 11.8084 66.388 13.8194 64.738 16.5006V16.4491L64.5317 13.149C64.4801 12.685 64.2223 12.3756 63.7583 12.3756H58.7051C58.241 12.3756 57.9316 12.685 57.9316 13.149V36.868C57.9316 37.3321 58.241 37.6415 58.7051 37.6415H63.9645C64.4286 37.6415 64.738 37.3321 64.738 36.868V23.0491C64.738 21.8632 66.4911 18.0991 70.3068 18.0991C72.7818 18.0991 75.0506 19.5429 75.0506 23.7195V36.868C75.0506 37.3321 75.3599 37.6415 75.824 37.6415H81.0834C81.5475 37.6415 81.8569 37.3321 81.8569 36.868V22.946C81.8569 21.1413 83.61 18.0991 87.4257 18.0991C89.8491 18.0991 92.1179 19.5429 92.1179 23.7195V36.868C92.1179 37.3321 92.4273 37.6415 92.8913 37.6415H98.1508C98.6148 37.6415 98.9242 37.3321 98.9242 36.868V22.4819C98.9242 15.7272 94.9539 11.8084 89.4366 11.8084Z"></path><path d="M37.066 12.2063C30.5662 13.9479 26.5591 20.3487 27.6752 26.8526C27.7398 27.2292 27.7721 27.4176 27.8906 27.5676C27.9889 27.6919 28.1492 27.7946 28.3033 27.8318C28.4892 27.8767 28.6903 27.8228 29.0926 27.715L51.7254 21.6505C52.1277 21.5427 52.3289 21.4888 52.4674 21.3571C52.5822 21.2478 52.6697 21.0787 52.6927 20.9219C52.7203 20.7327 52.6541 20.5534 52.5218 20.1949C50.2364 14.0044 43.5657 10.4647 37.066 12.2063Z"></path><path d="M50.5554 30.5403C50.9159 30.7485 51.0962 30.8525 51.1958 31.0158C51.2784 31.1511 51.3192 31.3374 51.3006 31.4949C51.2782 31.6849 51.1679 31.8404 50.9475 32.1515C49.874 33.6661 48.4836 34.9356 46.8676 35.8686C44.9041 37.0022 42.6767 37.5991 40.4094 37.5991C38.142 37.5991 35.9146 37.0022 33.9511 35.8686C32.3352 34.9356 30.9448 33.6661 29.8712 32.1515C29.6508 31.8404 29.5405 31.6849 29.5181 31.4949C29.4995 31.3374 29.5403 31.1511 29.6229 31.0158C29.7225 30.8525 29.9028 30.7485 30.2633 30.5403L33.0213 28.948C33.3825 28.7395 33.5631 28.6352 33.723 28.6189C33.8807 28.6029 33.9912 28.6229 34.1332 28.6935C34.2772 28.7651 34.4328 28.9547 34.7442 29.3339C35.3014 30.0125 35.9782 30.5882 36.7443 31.0305C37.8586 31.6738 39.1227 32.0125 40.4094 32.0125C41.696 32.0125 42.9601 31.6738 44.0744 31.0305C44.8405 30.5882 45.5173 30.0125 46.0745 29.3339C46.3859 28.9547 46.5415 28.7651 46.6855 28.6935C46.8275 28.6229 46.938 28.6029 47.0957 28.6189C47.2556 28.6352 47.4362 28.7395 47.7974 28.948L50.5554 30.5403Z"></path><circle cx="37.0657" cy="12.2059" r="2.51114" transform="rotate(-15 37.0657 12.2059)"></circle></svg>